<svg xmlns="http://www.w3.org/2000/svg" viewBox="0 0 180 180" width="180" height="180">
  <rect width="180" height="180" fill="#0B1D3A"/>
  <g fill="#FFFFFF">
    <rect x="13" y="45" width="10" height="10"/>
    <rect x="73" y="45" width="10" height="10"/>
    <rect x="13" y="55" width="10" height="10"/>
    <rect x="73" y="55" width="10" height="10"/>
    <rect x="13" y="65" width="10" height="10"/>
    <rect x="73" y="65" width="10" height="10"/>
    <rect x="23" y="75" width="10" height="10"/>
    <rect x="63" y="75" width="10" height="10"/>
    <rect x="23" y="85" width="10" height="10"/>
    <rect x="63" y="85" width="10" height="10"/>
    <rect x="23" y="95" width="10" height="10"/>
    <rect x="63" y="95" width="10" height="10"/>
    <rect x="33" y="105" width="10" height="10"/>
    <rect x="53" y="105" width="10" height="10"/>
    <rect x="33" y="115" width="10" height="10"/>
    <rect x="53" y="115" width="10" height="10"/>
    <rect x="43" y="125" width="10" height="10"/>
    <rect x="107" y="45" width="50" height="10"/>
    <rect x="97" y="55" width="20" height="10"/>
    <rect x="97" y="65" width="20" height="10"/>
    <rect x="107" y="75" width="40" height="10"/>
    <rect x="117" y="85" width="30" height="10"/>
    <rect x="117" y="95" width="40" height="10"/>
    <rect x="147" y="105" width="20" height="10"/>
    <rect x="147" y="115" width="20" height="10"/>
    <rect x="107" y="125" width="50" height="10"/>
  </g>
</svg>
